<svg width="171" height="29" viewBox="0 0 171 29" fill="none" xmlns="http://www.w3.org/2000/svg">
<path d="M13.5469 2.04688C14.4375 2.04688 15.0938 2.89062 14.8594 3.73438L12.3281 12.5H16.3594C17.25 12.5 18 13.25 18 14.1406C18 14.6562 17.7656 15.0781 17.3906 15.4062L5.25 25.7188C5.01562 25.9062 4.73438 26 4.40625 26C3.51562 26 2.85938 25.1562 3.09375 24.3125L5.625 15.5H1.54688C0.703125 15.5 0 14.7969 0 13.9531C0 13.4844 0.1875 13.0156 0.515625 12.7344L12.7031 2.32812C12.9375 2.14062 13.2188 2 13.5469 2V2.04688ZM11.8594 5.98438L3.375 13.25H7.125C7.45312 13.25 7.78125 13.4375 8.01562 13.7188C8.20312 14 8.29688 14.375 8.20312 14.7031L6.09375 22.0625L14.6719 14.75H10.875C10.5 14.75 10.1719 14.6094 9.9375 14.3281C9.75 14.0469 9.65625 13.6719 9.75 13.3438L11.8594 5.98438ZM120.668 6.2H124.556V23H120.668V6.2ZM113.036 23H109.148V6.2H113.036V23ZM120.956 16.112H112.748V12.824H120.956V16.112ZM136.187 23V20.48L135.947 19.928V15.416C135.947 14.616 135.699 13.992 135.203 13.544C134.723 13.096 133.979 12.872 132.971 12.872C132.283 12.872 131.603 12.984 130.931 13.208C130.275 13.416 129.715 13.704 129.251 14.072L127.907 11.456C128.611 10.96 129.459 10.576 130.451 10.304C131.443 10.032 132.451 9.896 133.475 9.896C135.443 9.896 136.971 10.36 138.059 11.288C139.147 12.216 139.691 13.664 139.691 15.632V23H136.187ZM132.251 23.192C131.243 23.192 130.379 23.024 129.659 22.688C128.939 22.336 128.387 21.864 128.003 21.272C127.619 20.68 127.427 20.016 127.427 19.28C127.427 18.512 127.611 17.84 127.979 17.264C128.363 16.688 128.963 16.24 129.779 15.92C130.595 15.584 131.659 15.416 132.971 15.416H136.403V17.6H133.379C132.499 17.6 131.891 17.744 131.555 18.032C131.235 18.32 131.075 18.68 131.075 19.112C131.075 19.592 131.259 19.976 131.627 20.264C132.011 20.536 132.531 20.672 133.187 20.672C133.811 20.672 134.371 20.528 134.867 20.24C135.363 19.936 135.723 19.496 135.947 18.92L136.523 20.648C136.251 21.48 135.755 22.112 135.035 22.544C134.315 22.976 133.387 23.192 132.251 23.192ZM148.528 23.192C147.456 23.192 146.496 22.984 145.648 22.568C144.816 22.152 144.168 21.52 143.704 20.672C143.24 19.808 143.008 18.712 143.008 17.384V10.088H146.752V16.832C146.752 17.904 146.976 18.696 147.424 19.208C147.888 19.704 148.536 19.952 149.368 19.952C149.944 19.952 150.456 19.832 150.904 19.592C151.352 19.336 151.704 18.952 151.96 18.44C152.216 17.912 152.344 17.256 152.344 16.472V10.088H156.088V23H152.536V19.448L153.184 20.48C152.752 21.376 152.112 22.056 151.264 22.52C150.432 22.968 149.52 23.192 148.528 23.192ZM163.9 23.192C162.796 23.192 161.732 23.064 160.708 22.808C159.7 22.536 158.9 22.2 158.308 21.8L159.556 19.112C160.148 19.48 160.844 19.784 161.644 20.024C162.46 20.248 163.26 20.36 164.044 20.36C164.908 20.36 165.516 20.256 165.868 20.048C166.236 19.84 166.42 19.552 166.42 19.184C166.42 18.88 166.276 18.656 165.988 18.512C165.716 18.352 165.348 18.232 164.884 18.152C164.42 18.072 163.908 17.992 163.348 17.912C162.804 17.832 162.252 17.728 161.692 17.6C161.132 17.456 160.62 17.248 160.156 16.976C159.692 16.704 159.316 16.336 159.028 15.872C158.756 15.408 158.62 14.808 158.62 14.072C158.62 13.256 158.852 12.536 159.316 11.912C159.796 11.288 160.484 10.8 161.38 10.448C162.276 10.08 163.348 9.896 164.596 9.896C165.476 9.896 166.372 9.992 167.284 10.184C168.196 10.376 168.956 10.656 169.564 11.024L168.316 13.688C167.692 13.32 167.06 13.072 166.42 12.944C165.796 12.8 165.188 12.728 164.596 12.728C163.764 12.728 163.156 12.84 162.772 13.064C162.388 13.288 162.196 13.576 162.196 13.928C162.196 14.248 162.332 14.488 162.604 14.648C162.892 14.808 163.268 14.936 163.732 15.032C164.196 15.128 164.7 15.216 165.244 15.296C165.804 15.36 166.364 15.464 166.924 15.608C167.484 15.752 167.988 15.96 168.436 16.232C168.9 16.488 169.276 16.848 169.564 17.312C169.852 17.76 169.996 18.352 169.996 19.088C169.996 19.888 169.756 20.6 169.276 21.224C168.796 21.832 168.1 22.312 167.188 22.664C166.292 23.016 165.196 23.192 163.9 23.192Z" fill="#FFC107"/>
<path d="M28.992 23V6.2H36.264C37.768 6.2 39.064 6.448 40.152 6.944C41.24 7.424 42.08 8.12 42.672 9.032C43.264 9.944 43.56 11.032 43.56 12.296C43.56 13.544 43.264 14.624 42.672 15.536C42.08 16.448 41.24 17.152 40.152 17.648C39.064 18.128 37.768 18.368 36.264 18.368H31.152L32.88 16.616V23H28.992ZM32.88 17.048L31.152 15.2H36.048C37.248 15.2 38.144 14.944 38.736 14.432C39.328 13.92 39.624 13.208 39.624 12.296C39.624 11.368 39.328 10.648 38.736 10.136C38.144 9.624 37.248 9.368 36.048 9.368H31.152L32.88 7.52V17.048ZM52.1923 23.192C50.8163 23.192 49.5923 22.904 48.5203 22.328C47.4643 21.752 46.6243 20.968 46.0003 19.976C45.3923 18.968 45.0883 17.824 45.0883 16.544C45.0883 15.248 45.3923 14.104 46.0003 13.112C46.6243 12.104 47.4643 11.32 48.5203 10.76C49.5923 10.184 50.8163 9.896 52.1923 9.896C53.5523 9.896 54.7683 10.184 55.8403 10.76C56.9123 11.32 57.7523 12.096 58.3603 13.088C58.9683 14.08 59.2723 15.232 59.2723 16.544C59.2723 17.824 58.9683 18.968 58.3603 19.976C57.7523 20.968 56.9123 21.752 55.8403 22.328C54.7683 22.904 53.5523 23.192 52.1923 23.192ZM52.1923 20.12C52.8163 20.12 53.3763 19.976 53.8723 19.688C54.3683 19.4 54.7603 18.992 55.0483 18.464C55.3363 17.92 55.4803 17.28 55.4803 16.544C55.4803 15.792 55.3363 15.152 55.0483 14.624C54.7603 14.096 54.3683 13.688 53.8723 13.4C53.3763 13.112 52.8163 12.968 52.1923 12.968C51.5683 12.968 51.0083 13.112 50.5123 13.4C50.0163 13.688 49.6163 14.096 49.3123 14.624C49.0243 15.152 48.8803 15.792 48.8803 16.544C48.8803 17.28 49.0243 17.92 49.3123 18.464C49.6163 18.992 50.0163 19.4 50.5123 19.688C51.0083 19.976 51.5683 20.12 52.1923 20.12ZM64.3753 23L59.7193 10.088H63.2473L67.1113 21.2H65.4313L69.4633 10.088H72.6313L76.5433 21.2H74.8633L78.8473 10.088H82.1593L77.4793 23H73.8553L70.4233 13.472H71.5273L67.9753 23H64.3753ZM89.9563 23.192C88.4843 23.192 87.1883 22.904 86.0683 22.328C84.9643 21.752 84.1083 20.968 83.5003 19.976C82.8923 18.968 82.5883 17.824 82.5883 16.544C82.5883 15.248 82.8843 14.104 83.4763 13.112C84.0843 12.104 84.9083 11.32 85.9483 10.76C86.9883 10.184 88.1643 9.896 89.4763 9.896C90.7403 9.896 91.8763 10.168 92.8843 10.712C93.9083 11.24 94.7163 12.008 95.3083 13.016C95.9003 14.008 96.1963 15.2 96.1963 16.592C96.1963 16.736 96.1883 16.904 96.1723 17.096C96.1563 17.272 96.1403 17.44 96.1243 17.6H85.6363V15.416H94.1563L92.7163 16.064C92.7163 15.392 92.5803 14.808 92.3083 14.312C92.0363 13.816 91.6603 13.432 91.1803 13.16C90.7003 12.872 90.1403 12.728 89.5003 12.728C88.8603 12.728 88.2923 12.872 87.7963 13.16C87.3163 13.432 86.9403 13.824 86.6683 14.336C86.3963 14.832 86.2603 15.424 86.2603 16.112V16.688C86.2603 17.392 86.4123 18.016 86.7163 18.56C87.0363 19.088 87.4763 19.496 88.0363 19.784C88.6123 20.056 89.2843 20.192 90.0523 20.192C90.7403 20.192 91.3403 20.088 91.8523 19.88C92.3803 19.672 92.8603 19.36 93.2923 18.944L95.2843 21.104C94.6923 21.776 93.9483 22.296 93.0523 22.664C92.1563 23.016 91.1243 23.192 89.9563 23.192ZM98.6889 23V10.088H102.265V13.736L101.761 12.68C102.145 11.768 102.761 11.08 103.609 10.616C104.457 10.136 105.489 9.896 106.705 9.896V13.352C106.545 13.336 106.401 13.328 106.273 13.328C106.145 13.312 106.009 13.304 105.865 13.304C104.841 13.304 104.009 13.6 103.369 14.192C102.745 14.768 102.433 15.672 102.433 16.904V23H98.6889Z" fill="white"/>
</svg>
