<svg width="49" height="49" viewBox="0 0 49 49" fill="none" xmlns="http://www.w3.org/2000/svg">
<circle cx="24.5" cy="24.5" r="24.5" fill="#D9D9D9"/>
<circle cx="24.5" cy="24.5" r="24.5" fill="#004250"/>
<path d="M35.5 28.0469C36.5781 28.5156 37.1875 29.6875 36.8594 30.8594L35.875 35.125C35.6875 36.25 34.7031 37 33.5312 37C22.1875 37 13 27.8125 13 16.4688C13 15.2969 13.75 14.3125 14.875 14.0781L19.1406 13.0938C20.3125 12.8125 21.4844 13.4219 21.9531 14.5L23.9688 19.1875C24.3906 20.1719 24.0625 21.3438 23.2656 22.0469L21.6719 23.3125C22.8906 25.375 24.625 27.1094 26.7344 28.3281L28 26.7812C28.7031 25.9375 29.875 25.6094 30.9062 26.0781L35.5 28.0469ZM34.7031 30.3438C34.75 30.25 34.7031 30.1562 34.6094 30.0625L30.0156 28.0938C29.9219 28.0469 29.8281 28.0938 29.7812 28.1406L27.9062 30.4375C27.5781 30.8594 26.9688 30.9531 26.5 30.7188C23.3594 29.1719 20.7812 26.5938 19.2344 23.4531C19 22.9844 19.1406 22.4219 19.5156 22.0938L21.8125 20.2188C21.9062 20.1719 21.9062 20.0781 21.8594 19.9844L19.8906 15.3906C19.8438 15.3438 19.7969 15.25 19.7031 15.25L19.6562 15.2969L15.3906 16.2812C15.2969 16.2812 15.2031 16.375 15.2031 16.4688C15.2031 26.5469 23.4531 34.75 33.5312 34.75C33.625 34.75 33.7188 34.6562 33.7188 34.6094L34.7031 30.3438Z" fill="#FFC107"/>
</svg>
